<?xml version="1.0" encoding="UTF-8"?>
<!DOCTYPE svg PUBLIC "-//W3C//DTD SVG 1.1//EN" "http://www.w3.org/Graphics/SVG/1.1/DTD/svg11.dtd">
<svg xmlns="http://www.w3.org/2000/svg" version="1.1" width="2000px" height="2000px" style="shape-rendering:geometricPrecision; text-rendering:geometricPrecision; image-rendering:optimizeQuality; fill-rule:evenodd; clip-rule:evenodd" xmlns:xlink="http://www.w3.org/1999/xlink">
<g><path style="opacity:0.007" fill="#000000" d="M 1255.5,338.5 C 1258.01,339.216 1258.01,340.216 1255.5,341.5C 1254.44,340.575 1254.44,339.575 1255.5,338.5 Z"/></g>
<g><path style="opacity:0.012" fill="#000000" d="M 1251.5,343.5 C 1252.29,343.783 1252.96,344.283 1253.5,345C 1248.28,349.608 1247.61,349.108 1251.5,343.5 Z"/></g>
<g><path style="opacity:0.981" fill="#000000" d="M 1312.5,343.5 C 1356.54,338.55 1392.54,352.883 1420.5,386.5C 1438.18,411.395 1451.34,438.395 1460,467.5C 1473.54,517.343 1477.37,568.01 1471.5,619.5C 1469.33,641.477 1465.83,663.143 1461,684.5C 1458.37,690.917 1456.7,697.584 1456,704.5C 1450.93,717.197 1446.6,730.197 1443,743.5C 1437.04,757.416 1429.54,770.416 1420.5,782.5C 1396.52,806.604 1368.18,813.104 1335.5,802C 1329.91,798.477 1324.25,795.144 1318.5,792C 1317.53,789.453 1315.69,787.953 1313,787.5C 1312.52,786.552 1312.35,785.552 1312.5,784.5C 1311.32,784.719 1310.32,784.386 1309.5,783.5C 1290.55,760.252 1286.05,734.252 1296,705.5C 1300.44,698.396 1304.44,691.062 1308,683.5C 1310.74,673.165 1313.74,662.832 1317,652.5C 1322.96,625.762 1326.8,598.595 1328.5,571C 1327.28,547.389 1322.94,524.556 1315.5,502.5C 1289.88,521.698 1265.21,541.865 1241.5,563C 1185.33,605.94 1131.33,650.607 1079.5,697C 1061.99,710.426 1042.66,720.759 1021.5,728C 1006.17,728.667 990.833,728.667 975.5,728C 957.245,722.818 938.578,719.485 919.5,718C 861.605,712.894 803.772,713.394 746,719.5C 718.418,723.804 692.251,731.637 667.5,743C 632.287,756.751 599.954,774.751 570.5,797C 566.947,802.221 562.447,806.387 557,809.5C 548.107,820.16 538.773,830.493 529,840.5C 508.882,867.644 491.882,896.978 478,928.5C 472.058,944.019 465.558,959.185 458.5,974C 451.889,992.506 446.055,1011.34 441,1030.5C 435.266,1057.14 431.432,1084.14 429.5,1111.5C 432.523,1151.74 444.69,1188.4 466,1221.5C 472.766,1229.4 478.766,1237.73 484,1246.5C 492.655,1258.19 501.988,1269.19 512,1279.5C 522.696,1294.2 535.196,1307.37 549.5,1319C 584.089,1343.79 622.422,1361.12 664.5,1371C 684.411,1375.96 704.577,1379.46 725,1381.5C 740.456,1379.67 755.956,1379.17 771.5,1380C 781.27,1381.7 790.27,1385.2 798.5,1390.5C 799.386,1391.32 799.719,1392.32 799.5,1393.5C 800.873,1393.34 802.207,1393.51 803.5,1394C 827.128,1414.62 835.628,1440.45 829,1471.5C 827.206,1477.75 824.872,1483.75 822,1489.5C 817.541,1495.1 813.374,1500.77 809.5,1506.5C 808.448,1506.35 807.448,1506.52 806.5,1507C 791.727,1519.82 774.393,1526.15 754.5,1526C 722.619,1527.94 690.952,1526.28 659.5,1521C 625.664,1514.27 592.664,1504.94 560.5,1493C 540.501,1483.33 520.501,1473.67 500.5,1464C 471.745,1446.42 445.245,1425.59 421,1401.5C 392.911,1369.51 366.578,1336.51 342,1302.5C 323.186,1271.54 308.186,1238.88 297,1204.5C 285.214,1163.98 281.214,1122.64 285,1080.5C 287.464,1046.9 292.798,1013.9 301,981.5C 322.655,909.532 352.988,841.532 392,777.5C 411.95,750.816 433.45,725.316 456.5,701C 477.73,681.726 500.396,664.393 524.5,649C 573.638,620.1 625.638,597.767 680.5,582C 711.067,574.729 742.067,570.729 773.5,570C 815.167,569.333 856.833,569.333 898.5,570C 928.659,570.566 958.493,573.732 988,579.5C 1021.62,550.728 1055.45,522.395 1089.5,494.5C 1090.69,493.571 1092.02,493.238 1093.5,493.5C 1093.22,490.612 1094.55,489.112 1097.5,489C 1114.02,475.052 1131.02,461.552 1148.5,448.5C 1176.37,422.99 1205.37,399.49 1235.5,378C 1259.9,363.124 1285.56,351.624 1312.5,343.5 Z"/></g>
<g><path style="opacity:0.004" fill="#000000" d="M 1245.5,351.5 C 1246.83,352.167 1246.83,352.167 1245.5,351.5 Z"/></g>
<g><path style="opacity:0.006" fill="#000000" d="M 1245.5,352.5 C 1245.59,353.995 1244.92,354.995 1243.5,355.5C 1242.36,353.604 1243.03,352.604 1245.5,352.5 Z"/></g>
<g><path style="opacity:0.98" fill="#000000" d="M 1293.5,842.5 C 1333.5,842.333 1373.5,842.5 1413.5,843C 1464.59,850.724 1512.25,867.724 1556.5,894C 1581.32,903.926 1604.99,915.926 1627.5,930C 1637.92,939.752 1648.42,949.585 1659,959.5C 1665.2,967.981 1670.87,976.981 1676,986.5C 1682.59,1003.34 1689.42,1020 1696.5,1036.5C 1699.31,1050.94 1697.47,1064.61 1691,1077.5C 1689.15,1080.61 1687.15,1083.61 1685,1086.5C 1676.64,1117.01 1656.64,1132.35 1625,1132.5C 1619.17,1132.33 1613.33,1132.17 1607.5,1132C 1586.75,1129.11 1566.09,1125.45 1545.5,1121C 1532.19,1119.8 1518.86,1118.97 1505.5,1118.5C 1449.36,1121.49 1393.19,1122.16 1337,1120.5C 1288.84,1121.59 1240.67,1122.09 1192.5,1122C 1156.73,1120.7 1121.06,1118.04 1085.5,1114C 1055.18,1112.85 1024.85,1112.19 994.5,1112C 984.58,1109.69 974.747,1107.19 965,1104.5C 944.394,1098.15 931.061,1084.48 925,1063.5C 924.333,1054.5 924.333,1045.5 925,1036.5C 926.466,1031.77 928.133,1027.1 930,1022.5C 937.977,1008.56 946.644,995.228 956,982.5C 971,968 985.5,953 999.5,937.5C 1025.56,913.976 1054.89,895.809 1087.5,883C 1102.76,877.249 1118.43,872.249 1134.5,868C 1150.72,864.612 1166.72,860.612 1182.5,856C 1200.22,853.136 1217.89,850.469 1235.5,848C 1255.07,847.049 1274.4,845.215 1293.5,842.5 Z M 1338.5,953.5 C 1386.98,950.441 1432.98,959.274 1476.5,980C 1483.21,984.85 1490.54,988.517 1498.5,991C 1508.67,996.478 1519.01,1001.81 1529.5,1007C 1488.3,1007.25 1447.14,1008.41 1406,1010.5C 1344.48,1009.09 1282.98,1009.43 1221.5,1011.5C 1182.23,1010.14 1143.23,1006.47 1104.5,1000.5C 1111,997.037 1117.66,993.87 1124.5,991C 1167.65,975.493 1212.32,965.16 1258.5,960C 1285.27,957.134 1311.93,954.967 1338.5,953.5 Z"/></g>
<g><path style="opacity:0.974" fill="#000000" d="M 715.5,950.5 C 744.983,947.883 766.483,959.55 780,985.5C 788.747,1012.35 782.914,1035.18 762.5,1054C 745.112,1065.82 726.112,1068.82 705.5,1063C 677.645,1050.24 665.479,1028.4 669,997.5C 674.989,972.345 690.489,956.678 715.5,950.5 Z"/></g>
<g><path style="opacity:0.979" fill="#000000" d="M 1275.5,1129.5 C 1291.03,1128.9 1306.36,1129.74 1321.5,1132C 1345.2,1139.9 1366.87,1151.57 1386.5,1167C 1394.95,1174.47 1403.62,1181.47 1412.5,1188C 1413.34,1189.01 1413.67,1190.18 1413.5,1191.5C 1417.87,1193.54 1421.87,1196.38 1425.5,1200C 1427.5,1200.67 1429.5,1200.67 1431.5,1200C 1442.61,1191.64 1453.94,1183.64 1465.5,1176C 1481.51,1167.89 1498.18,1161.55 1515.5,1157C 1532.17,1156.33 1548.83,1156.33 1565.5,1157C 1586.04,1164.13 1604.38,1174.63 1620.5,1188.5C 1634.9,1203.07 1649.07,1217.73 1663,1232.5C 1670.23,1246.29 1672.56,1260.95 1670,1276.5C 1664.76,1295.55 1652.93,1308.71 1634.5,1316C 1665.89,1319.61 1683.39,1337.11 1687,1368.5C 1694.44,1379.67 1697.94,1392 1697.5,1405.5C 1695.34,1424.76 1693.84,1444.09 1693,1463.5C 1686.79,1489.75 1673.96,1512.25 1654.5,1531C 1644.52,1538.33 1633.86,1544.66 1622.5,1550C 1602.83,1555.5 1582.83,1559.5 1562.5,1562C 1506.42,1564.92 1450.42,1563.92 1394.5,1559C 1333.47,1558.14 1272.47,1556.31 1211.5,1553.5C 1165.9,1557.69 1120.23,1558.53 1074.5,1556C 1047.71,1553.45 1022.04,1547.12 997.5,1537C 980.116,1527.95 966.283,1515.11 956,1498.5C 949.811,1481.51 943.145,1464.51 936,1447.5C 930.127,1423.34 923.96,1399.34 917.5,1375.5C 916.335,1366.52 916.168,1357.52 917,1348.5C 921.203,1333.6 929.703,1321.77 942.5,1313C 955.03,1307.11 967.53,1301.28 980,1295.5C 995.172,1294.18 1010.34,1294.34 1025.5,1296C 1055.88,1301.2 1086.21,1306.2 1116.5,1311C 1144.41,1314.94 1172.41,1315.94 1200.5,1314C 1254.5,1313.26 1308.5,1313.42 1362.5,1314.5C 1373.52,1314.42 1384.52,1313.92 1395.5,1313C 1388.6,1310.55 1381.93,1307.55 1375.5,1304C 1369.77,1299.6 1363.77,1295.6 1357.5,1292C 1340.67,1277.67 1323.67,1263.51 1306.5,1249.5C 1302.43,1247.25 1298.26,1245.25 1294,1243.5C 1292,1244.17 1290,1244.83 1288,1245.5C 1278.69,1251.18 1269.19,1256.68 1259.5,1262C 1244.43,1272.06 1229.1,1281.73 1213.5,1291C 1205.06,1294.59 1196.39,1297.59 1187.5,1300C 1173.5,1300.67 1159.5,1300.67 1145.5,1300C 1135.15,1296.93 1125.48,1292.6 1116.5,1287C 1107.18,1278.69 1097.51,1270.69 1087.5,1263C 1074.17,1255.26 1060.17,1253.26 1045.5,1257C 1039.71,1264.08 1034.05,1271.24 1028.5,1278.5C 1012.39,1292.19 993.722,1296.69 972.5,1292C 942.261,1279.71 929.428,1257.21 934,1224.5C 936.469,1214.56 940.802,1205.56 947,1197.5C 960.092,1178.41 976.925,1163.57 997.5,1153C 1005.01,1150.34 1012.51,1147.5 1020,1144.5C 1076.83,1133.87 1127.5,1146.87 1172,1183.5C 1199.48,1164.37 1228.31,1147.87 1258.5,1134C 1264.47,1132.64 1270.13,1131.14 1275.5,1129.5 Z M 1535.5,1269.5 C 1536.87,1269.34 1538.21,1269.51 1539.5,1270C 1552.33,1281.83 1565,1294.16 1577.5,1307C 1580.17,1308.67 1582.83,1310.33 1585.5,1312C 1544.17,1311.84 1502.84,1311.51 1461.5,1311C 1480.78,1303.83 1498.11,1293.66 1513.5,1280.5C 1520.89,1276.73 1528.22,1273.06 1535.5,1269.5 Z M 1045.5,1416.5 C 1045.92,1415.88 1046.58,1415.54 1047.5,1415.5C 1077.27,1420.94 1107.27,1424.44 1137.5,1426C 1182.18,1426.38 1226.84,1425.88 1271.5,1424.5C 1301.83,1424.83 1332.17,1425.16 1362.5,1425.5C 1405,1424.4 1447.5,1423.4 1490,1422.5C 1520.89,1422.34 1551.73,1423.34 1582.5,1425.5C 1581.96,1429.82 1581.46,1434.15 1581,1438.5C 1580.64,1440.42 1579.81,1442.09 1578.5,1443.5C 1570.57,1444.7 1562.74,1446.37 1555,1448.5C 1524.2,1450.51 1493.37,1451.01 1462.5,1450C 1439.33,1449.48 1416.33,1448.15 1393.5,1446C 1362.83,1445.67 1332.17,1445.33 1301.5,1445C 1259.22,1441.8 1216.89,1440.8 1174.5,1442C 1166.35,1443.71 1158.02,1444.71 1149.5,1445C 1133.17,1445.67 1116.83,1445.67 1100.5,1445C 1084.64,1442.82 1068.97,1439.99 1053.5,1436.5C 1053.04,1433.8 1052.38,1431.13 1051.5,1428.5C 1049.27,1424.4 1047.27,1420.4 1045.5,1416.5 Z"/></g>
</svg>
